name C:\Users\u0101727\Documents\MyRepositories\upper-imu-dc\Results\main_mocap_tracking\Case_10\kinematics.mot
datacolumns 10
datarows 33
range 3.50000000 3.82000000
endheader 
time	clav_prot	clav_elev	scapula_abduction	scapula_elevation	scapula_upward_rot	scapula_winging	plane_elv	shoulder_elv	axial_rot	
          3.50000000	        -48.85798229	         12.37331063	         -5.40499466	          0.59201526	         86.94084790	        -15.19090823	         39.20258815	         88.52048231	        -10.50571474	
          3.51000000	        -48.85852368	         12.38819268	         -5.41923068	          0.60015335	         86.92839790	        -15.19675607	         39.26561117	         88.48006767	        -10.34655949	
          3.52000000	        -48.85420850	         12.40251455	         -5.42769911	          0.60787399	         86.91263530	        -15.19936828	         39.31946868	         88.44149737	        -10.21830739	
          3.53000000	        -48.84412215	         12.41530114	         -5.42858018	          0.61461271	         86.89360119	        -15.19783339	         39.36291508	         88.40570978	        -10.12062798	
          3.54000000	        -48.82791016	         12.42574637	         -5.42075572	          0.61992144	         86.87170728	        -15.19163852	         39.39531151	         88.37311294	        -10.05230355	
          3.55000000	        -48.80596694	         12.43324591	         -5.40416622	          0.62346732	         86.84768895	        -15.18083255	         39.41689293	         88.34351604	        -10.01120256	
          3.56000000	        -48.77948799	         12.43738730	         -5.37998870	          0.62500369	         86.82247920	        -15.16608862	         39.42890207	         88.31621483	         -9.99457166	
          3.57000000	        -48.75034331	         12.43793506	         -5.35055198	          0.62434667	         86.79703550	        -15.14863423	         39.43348655	         88.29022191	         -9.99972589	
          3.58000000	        -48.72079069	         12.43483377	         -5.31899318	          0.62137723	         86.77216400	        -15.13006028	         39.43336363	         88.26457499	        -10.02481187	
          3.59000000	        -48.69309913	         12.42822592	         -5.28873829	          0.61606674	         86.74838402	        -15.11205617	         39.43134644	         88.23863089	        -10.06924839	
          3.60000000	        -48.66918109	         12.41846380	         -5.26294239	          0.60850790	         86.72586305	        -15.09613903	         39.42986744	         88.21226203	        -10.13368713	
          3.61000000	        -48.65033352	         12.40609991	         -5.24404265	          0.59893335	         86.70443351	        -15.08344915	         39.43062832	         88.18590112	        -10.21961351	
          3.62000000	        -48.63714998	         12.39185609	         -5.23353521	          0.58771560	         86.68368279	        -15.07466080	         39.43445983	         88.16041981	        -10.32872126	
          3.63000000	        -48.62959755	         12.37657884	         -5.23198952	          0.57534941	         86.66308780	        -15.07000901	         39.44140397	         88.13687545	        -10.46202138	
          3.64000000	        -48.62719398	         12.36118557	         -5.23922191	          0.56242041	         86.64215776	        -15.06938987	         39.45095933	         88.11619892	        -10.61865453	
          3.65000000	        -48.62920651	         12.34660072	         -5.25451661	          0.54956242	         86.62055852	        -15.07247809	         39.46238927	         88.09890280	        -10.79463793	
          3.66000000	        -48.63481630	         12.33367653	         -5.27680740	          0.53740330	         86.59820784	        -15.07881996	         39.47500042	         88.08486687	        -10.98196371	
          3.67000000	        -48.64322689	         12.32309609	         -5.30478827	          0.52649870	         86.57533407	        -15.08788623	         39.48834264	         88.07323198	        -11.16840404	
          3.68000000	        -48.65372102	         12.31526852	         -5.33697619	          0.51725764	         86.55248049	        -15.09909406	         39.50232437	         88.06242201	        -11.33825219	
          3.69000000	        -48.66568257	         12.31024134	         -5.37178150	          0.50987127	         86.53042697	        -15.11182172	         39.51725545	         88.05031251	        -11.47417461	
          3.70000000	        -48.67860041	         12.30766244	         -5.40763763	          0.50426235	         86.51000903	        -15.12543959	         39.53382705	         88.03455254	        -11.56023463	
          3.71000000	        -48.69206599	         12.30681714	         -5.44320270	          0.50007433	         86.49185373	        -15.13936780	         39.55304129	         88.01299461	        -11.58565511	
          3.72000000	        -48.70577190	         12.30674850	         -5.47758842	          0.49671544	         86.47611178	        -15.15315189	         39.57611937	         87.98410714	        -11.54806090	
          3.73000000	        -48.71950845	         12.30644978	         -5.51053167	          0.49346490	         86.46229022	        -15.16653116	         39.60441621	         87.94721866	        -11.45468223	
          3.74000000	        -48.73314165	         12.30510042	         -5.54242970	          0.48963106	         86.44924364	        -15.17946950	         39.63933788	         87.90252400	        -11.32086276	
          3.75000000	        -48.74655367	         12.30229954	         -5.57420819	          0.48473033	         86.43530694	        -15.19212851	         39.68224100	         87.85089475	        -11.16638383	
          3.76000000	        -48.75954739	         12.29823876	         -5.60705527	          0.47863920	         86.41850596	        -15.20478514	         39.73431682	         87.79359298	        -11.01078851	
          3.77000000	        -48.77174040	         12.29375709	         -5.64209650	          0.47167037	         86.39678043	        -15.21771581	         39.79648834	         87.73198529	        -10.86903858	
          3.78000000	        -48.78248573	         12.29024394	         -5.68008891	          0.46454237	         86.36818476	        -15.23107582	         39.86934920	         87.66731294	        -10.74859010	
          3.79000000	        -48.79084772	         12.28940255	         -5.72119303	          0.45824693	         86.33105510	        -15.24480067	         39.95315135	         87.60054127	        -10.64850523	
          3.80000000	        -48.79563872	         12.29293315	         -5.76485843	          0.45385129	         86.28412955	        -15.25854761	         40.04782580	         87.53230276	        -10.56070166	
          3.81000000	        -48.79551000	         12.30222154	         -5.80984242	          0.45229151	         86.22661153	        -15.27169147	         40.15301853	         87.46292880	        -10.47291992	
          3.82000000	        -48.78908736	         12.31810956	         -5.85436471	          0.45420908	         86.15817820	        -15.28338257	         40.26814145	         87.39253645	        -10.37254943	
